<?xml version="1.0" encoding="UTF-8" standalone="no"?>
<!-- Created with Inkscape (http://www.inkscape.org/) -->
<svg
   xmlns:svg="http://www.w3.org/2000/svg"
   xmlns="http://www.w3.org/2000/svg"
   version="1.0"
   width="602.36218"
   height="155.69292"
   id="svg8037">
  <defs
     id="defs8039" />
  <g
     transform="translate(232.63692,-942.31028)"
     id="layer1">
    <path
       d="M 108.24534,1055.6305 L 106.63466,1055.5905 L 101.8916,1052.4182 C 100.08151,1050.8077 98.553663,1050.3659 96.826404,1049.3625 L 96.866287,1047.4329 L 98.673314,1045.586 L 98.63343,1009.4577 C 98.51378,1008.7337 98.032111,1008.0126 96.746637,1007.1261 L 96.746637,1005.6012 C 102.10636,1003.1161 104.21711,1001.9965 110.77641,996.92206 C 105.67132,990.53138 100.24411,984.50297 94.614408,980.00216 L 94.372039,978.11229 C 95.577746,975.94337 95.820114,973.53196 96.182133,968.42983 L 97.228306,968.50959 L 128.54908,1001.1404 C 129.11052,1001.9842 129.19028,1002.2664 128.54908,1003.3095 L 126.89852,1004.6349 L 127.01817,1041.567 L 127.78209,1042.3308 L 127.82197,1044.3802 C 120.90987,1047.3132 114.75862,1051.7342 108.40487,1055.5107 L 108.24534,1055.6305 z M -32.954275,1022.5579 C -36.733997,1029.6326 -47.109825,1045.8253 -45.944001,1045.4633 C -41.078223,1043.9784 -36.212445,1042.3708 -31.994005,1047.8347 L -30.183911,1046.7916 L -30.021309,1025.2516 C -31.067482,1023.7635 -31.994005,1023.0395 -32.957343,1022.5579 L -32.954275,1022.5579 z M 217.52287,1045.8253 L 217.52287,1047.7549 C 215.35076,1048.9608 213.66339,1052.2955 211.61092,1054.8665 L 209.88366,1053.0196 L 209.88366,1051.9735 C 209.48176,1049.7646 207.9938,1047.9545 206.26348,1046.9511 L 206.26348,1045.7455 L 207.30965,1044.822 L 207.19,1006.6045 L 205.49955,1005.2392 L 210.4451,999.25051 L 210.48498,997.96516 L 212.29508,997.20112 C 213.38113,999.13098 214.70649,1000.7386 216.3141,1001.9842 C 217.96466,1002.9475 220.69821,1002.5855 221.90392,1001.9442 C 223.19246,1000.8581 224.80007,999.29052 226.24507,997.12135 L 227.33113,997.12135 L 232.75834,1002.9475 L 232.75834,1005.2392 C 231.11085,1007.1261 228.69944,1009.0557 227.49373,1010.8658 C 225.44127,1013.9983 224.34601,1015.8911 223.23234,1020.0668 C 222.48069,1023.0456 223.57595,1030.378 227.39556,1030.7678 C 230.24262,1030.8198 230.62918,1029.8319 230.62918,1029.8319 C 225.92601,1028.4268 226.96911,1022.88 229.38359,1021.7939 C 232.65403,1020.576 235.43053,1023.6224 235.57473,1025.6934 C 235.87539,1027.5342 235.271,1029.3411 234.14199,1030.556 C 232.60188,1031.9856 231.48514,1033.5719 227.13171,1033.2067 C 224.30919,1032.9735 221.22283,1030.0253 220.71662,1025.1318 C 219.9619,1017.9405 222.91021,1012.3907 224.43805,1009.9393 C 222.98997,1006.8868 220.98046,1005.4387 218.08431,1005.681 C 217.28051,1006.043 216.79884,1006.5645 216.63624,1007.3683 L 216.71907,1044.7422 L 217.52287,1045.8253 z M 74.111257,1047.4329 L 74.028422,1048.6385 C 70.932855,1051.7342 69.524663,1053.9829 68.963227,1055.833 L 67.555035,1055.833 C 64.539234,1047.7949 62.087937,1048.2765 62.087937,1048.0372 L 62.12782,1047.0709 L 63.937915,1045.9878 L 63.937915,1010.6236 C 61.124599,1004.8771 56.096219,1004.5551 53.402553,1009.338 L 53.36267,1044.9815 L 55.694317,1047.1507 L 55.61455,1048.3165 C 53.163253,1050.5684 51.393042,1053.3418 49.944967,1056.2748 L 48.901862,1056.2748 C 47.291185,1052.8171 45.201907,1050.2861 42.388591,1049.1203 L 42.428474,1046.8316 C 43.674064,1046.1076 44.720238,1045.0613 45.281673,1043.1346 L 45.281673,1008.3746 C 45.201907,1007.2088 44.11585,1005.6012 42.75061,1005.4785 C 45.965828,1002.9475 46.536468,1001.8983 47.653204,999.41324 L 49.021512,997.00182 L 50.147452,997.00182 C 56.179054,1006.4848 61.526501,1005.5614 67.435385,996.79934 L 68.401791,996.71957 C 70.049283,999.7323 72.098678,1002.0239 74.270791,1003.6316 C 74.270791,1004.9969 72.178445,1005.5185 72.018911,1009.2184 L 72.018911,1045.8651 L 74.111257,1047.4329 z M 261.14614,1047.1936 L 261.22591,1048.479 C 258.77154,1050.4886 257.32654,1052.7773 255.35384,1055.109 L 253.90883,1055.0292 L 253.06208,1053.0596 C 251.81649,1050.6481 250.73043,1049.3228 249.40507,1047.9942 L 249.40507,1046.8714 L 251.01268,1044.3802 L 251.01268,1000.2968 C 251.01268,1000.2968 250.96973,999.48687 249.84686,999.41324 L 244.78166,999.37029 L 244.45953,997.28088 C 244.34295,996.14893 245.02403,996.31755 245.02403,996.31755 L 250.89303,996.31755 L 250.85315,982.05155 L 248.64115,979.92239 L 248.64115,977.95276 C 254.47027,975.34205 260.50187,971.84458 266.65312,967.30401 L 267.85883,967.46354 C 268.98477,970.07744 273.16639,973.41219 278.15182,969.39316 C 279.96192,973.25265 275.45816,978.19525 272.08034,978.79657 C 266.49052,979.03882 263.39495,978.07253 261.38544,975.54135 C 260.33927,974.98003 259.49558,976.02314 258.89426,977.83323 L 258.89426,995.55375 C 258.97403,996.56004 259.73795,996.52003 260.17974,996.52003 L 266.37087,996.6398 L 267.33728,999.57277 L 259.29616,999.85502 L 258.85438,1044.3404 L 261.14614,1047.1936 z M 15.007083,1045.224 L 15.046966,1046.5494 C 12.635553,1049.0005 10.945109,1053.0196 9.0981994,1055.6305 C 9.0981994,1055.6305 8.1103175,1053.5718 7.6286482,1052.581 C 5.8645732,1049.8014 4.5545562,1048.1967 3.2261312,1046.6291 L 4.8368082,1043.9784 L 4.8368082,1008.6937 L 3.7906352,1007.2088 L 3.7906352,1004.9569 C 11.027944,1002.1835 16.455158,999.13098 20.394414,995.55375 L 22.044974,995.43397 C 24.456388,1004.2329 27.269703,1007.3683 29.159564,1009.8995 L 29.159564,1011.4274 C 23.088079,1014.4401 19.71026,1015.7286 18.906455,1020.671 C 17.820399,1025.3314 20.636782,1028.025 22.48676,1027.7028 C 22.002023,1026.0952 21.149131,1025.3834 21.078568,1023.966 C 20.676666,1015.8514 30.003252,1018.7107 29.358981,1023.7606 C 28.334284,1029.519 24.253903,1030.8782 23.529865,1030.3964 C 23.529865,1030.3964 21.333208,1030.8107 19.894337,1030.0683 C 17.685409,1028.7429 16.415275,1027.3408 16.093139,1025.0921 C 14.841413,1019.4009 17.541215,1015.4861 19.22859,1013.6363 C 18.222301,1009.6602 16.777294,1006.4848 15.007083,1003.512 C 14.203278,1003.874 13.84126,1003.8311 13.681726,1004.5949 L 13.881143,1042.6101 C 14.605181,1043.3739 14.807666,1044.2575 15.007083,1045.224 M -102.59381,983.17761 L -98.209697,977.47121 L -92.984977,982.3338 L -97.568497,988.11997 L -102.59381,983.17761 z M -86.431817,983.13761 L -82.047709,977.43121 L -76.819912,982.29404 L -81.366623,988.0402 L -86.431817,983.13761 z M -37.178851,1022.5948 C -38.985877,1022.113 -40.354185,1021.4748 -40.716204,1020.2692 L -40.676321,1003.4691 C -36.013027,1005.9632 -31.269967,1005.5614 -26.324422,1003.7513 C -30.987715,1012.9552 -37.178851,1022.5948 -37.178851,1022.5948 M -199.81121,978.51432 C -200.41253,980.00216 -201.17645,980.7662 -202.06002,981.08821 C -202.06002,981.08821 -203.75046,981.45956 -204.7138,981.08821 C -205.75997,980.72619 -206.4564,979.96853 -206.96568,978.51432 C -207.46883,976.71944 -206.96568,974.85732 -206.96568,974.85732 C -206.40424,973.29266 -205.05434,972.21568 -203.64615,971.7739 C -202.35147,971.4887 -200.78068,971.82618 -200.78068,971.82618 C -198.64845,972.66974 -197.71886,974.21599 -197.07459,976.78694 C -196.71564,978.12776 -196.93346,980.5728 -197.11447,981.08821 C -198.40302,984.82498 -202.33613,988.03406 -206.58525,987.4082 C -210.30055,986.92346 -212.44505,984.77909 -213.73973,981.98111 C -213.73973,981.98111 -215.37188,978.87928 -214.79817,974.49824 C -214.58955,972.35067 -213.64155,970.75853 -213.64155,970.75853 C -211.94497,967.53717 -211.55227,967.01857 -209.21756,964.97236 C -206.18642,962.84615 -204.0726,962.07916 -201.49858,961.47784 C -198.5963,960.80289 -194.98224,960.25065 -190.99697,961.079 C -189.03655,961.35512 -178.09621,966.40203 -174.39933,967.10447 C -172.95125,967.54625 -170.67176,967.77328 -169.45378,967.42354 C -169.45378,967.42354 -160.20696,964.20832 -157.43353,961.91962 L -155.7032,961.87986 L -155.62344,963.32475 C -160.85123,968.34711 -169.25436,973.77126 -172.10756,974.53825 C -179.60872,976.26858 -184.91628,975.9095 -192.08916,972.04707 C -194.66318,970.55899 -197.23719,969.55589 -199.81121,968.83185 C -201.89128,968.49437 -203.02336,968.26416 -205.39796,968.87161 C -211.71181,971.20326 -213.91767,981.71727 -206.80615,984.30343 C -203.80569,985.42336 -199.16694,981.36752 -199.81121,978.51432 M -177.81703,1038.2966 C -171.5676,1037.9652 -166.21095,1039.401 -161.90968,1041.3706 L -162.05694,974.41553 L -167.08225,977.55098 L -167.2019,1026.2547 C -168.16831,1031.7618 -171.22399,1035.8606 -177.81703,1037.91 L -177.81703,1038.2966 z M -152.71194,1010.3811 L -152.71194,1004.7944 L -155.76456,1004.2115 C -155.76456,1004.2115 -158.18211,1003.6716 -158.70366,1004.1931 L -158.66378,1010.4608 C -157.6084,1011.4058 -152.71194,1010.3811 -152.71194,1010.3811 M -153.03408,1001.3797 L -152.63218,982.21108 L -152.9942,978.11229 C -153.3869,974.25894 -155.08961,971.9457 -157.27093,970.3781 L -158.65764,971.50097 L -158.34164,1001.619 L -153.03408,1001.3797 z M -149.11016,982.23882 C -149.10096,982.32767 -149.09482,997.36384 -149.09482,997.36384 L -148.89234,997.24726 C -143.14299,994.47383 -144.60334,988.47585 -144.77207,987.47275 C -145.2292,984.67158 -149.11016,982.23882 -149.11016,982.23882 M -154.38705,1013.2129 C -154.38705,1013.2129 -158.68832,1012.2496 -158.72821,1014.0565 L -158.59628,1043.423 C -156.13885,1044.8895 -154.1815,1046.4296 -152.77944,1047.6722 L -152.77944,1015.3021 C -152.49719,1013.4952 -153.98515,1013.3324 -154.38705,1013.2129 M -149.09482,999.26597 L -149.09482,1046.3714 L -148.89234,1046.2332 C -140.61193,1040.7264 -135.58661,1026.8622 -142.25942,1021.0362 L -142.25942,1019.7506 C -136.75244,1011.3505 -139.6854,1003.6347 -148.93529,999.53595 C -148.9537,999.44392 -149.01199,999.35482 -149.09482,999.26597 M -172.67207,1071.2616 C -169.9784,1072.8324 -167.2019,1072.9522 -163.98668,1070.9426 L -162.74109,1072.4704 C -168.68986,1080.1035 -177.93668,1082.1958 -188.47204,1078.5388 C -199.76826,1073.1147 -202.54476,1065.1564 -199.32647,1054.0627 C -195.72469,1045.184 -189.01507,1040.2446 -180.03209,1038.4958 C -181.95877,1036.8239 -180.63035,1035.2163 -178.74355,1033.1269 L -178.09928,1012.1912 C -178.09928,1009.6202 -180.02903,1009.2982 -181.39427,1007.8101 L -181.43415,1006.6843 C -180.35116,1005.681 -179.02274,1005.2392 -178.21893,1002.9873 L -178.17905,986.55236 L -181.51698,987.87772 C -182.68281,987.87772 -183.44673,987.71819 -183.24424,985.82833 C -178.86627,982.69582 -165.95631,972.85995 -157.29547,967.6567 L -147.26019,960.51155 C -145.21079,959.74751 -144.76901,959.83047 -144.92854,961.11582 C -145.03592,962.01485 -146.8184,963.97221 -147.25098,964.00289 C -145.32124,965.61663 -143.72283,969.38408 -141.06905,971.36279 L -138.77729,971.4028 C -137.771,971.88434 -137.57158,972.4059 -137.61146,972.93064 C -138.0962,974.13622 -138.41527,975.54135 -138.3355,977.1092 C -138.3355,977.1092 -137.40898,981.0055 -137.37216,982.85535 C -137.20956,988.92377 -139.34179,993.62388 -144.04497,997.08159 C -140.86963,998.56648 -137.85383,1000.2968 -134.55578,1003.3095 C -132.0646,1005.3987 -129.08868,1011.5869 -126.99634,1017.054 C -126.75704,1017.5755 -127.19882,1017.9774 -126.99634,1018.5389 L -124.18302,1021.073 L -124.2229,1022.1162 L -126.71715,1025.7732 C -128.28488,1030.4762 -129.89249,1034.3725 -132.54627,1036.9864 C -135.3197,1039.7169 -138.17597,1042.6101 -142.47724,1044.862 L -147.90446,1048.157 L -159.84494,1055.3114 L -160.85123,1055.3512 C -164.06645,1051.9735 -168.76963,1048.841 -173.3961,1047.2734 C -176.73097,1046.1473 -180.10879,1046.1873 -182.15819,1046.2271 C -194.22139,1046.5494 -199.32647,1060.3336 -194.90555,1068.1691 C -190.80369,1075.5231 -180.10879,1078.8979 -173.79801,1071.1421 L -172.67207,1071.2616 z M -28.4137,1014.4401 L -20.575072,1019.1832 L -20.575072,1020.5085 C -20.575072,1020.5085 -21.983264,1024.3526 -22.063031,1026.7365 C -22.142798,1028.9086 -22.262448,1039.3549 -21.820662,1040.4012 C -21.538411,1041.889 -20.897208,1042.6101 -20.010568,1043.5366 C -20.050452,1044.6195 -32.153539,1051.2126 -35.853494,1054.7469 L -37.421219,1054.7867 C -44.133907,1043.7759 -50.205392,1051.5715 -52.135137,1054.6672 C -52.576922,1055.431 -53.742746,1054.8267 -53.945231,1054.6272 L -54.024998,1052.9798 L -41.661135,1028.9668 C -43.222724,1027.5862 -47.560814,1026.0706 -51.291449,1024.2053 L -51.291449,1022.9597 L -48.880035,1020.1863 L -48.797201,1009.74 C -48.732773,1008.3501 -49.321821,1006.8468 -49.321821,1006.8468 C -49.53351,1006.3284 -50.647178,1005.1196 -50.647178,1005.1196 C -45.419381,1003.11 -40.035118,1000.5759 -34.485185,995.99553 L -33.159828,995.99553 C -30.463095,999.37029 -26.806091,1000.4163 -21.701012,998.00492 L -20.252937,999.493 C -19.771268,1000.9379 -28.131448,1012.5134 -28.4137,1014.4401 M -89.671577,1047.4636 L -89.447617,1047.3132 C -87.797057,1046.1873 -86.391937,1045.184 -84.741377,1044.862 L -84.741377,1005.8007 C -86.425687,1004.871 -88.109987,1003.877 -89.680787,1002.7328 C -91.294527,1003.11 -92.782487,1003.6316 -93.828657,1004.7576 L -93.868547,1044.2177 C -92.270137,1044.9602 -90.822067,1046.0769 -89.671577,1047.4636 M -74.408498,1043.6164 C -80.930973,1046.2087 -87.453447,1049.605 -93.939107,1053.8847 L -94.230567,1054.3051 L -95.838167,1054.3051 L -100.58123,1051.1297 C -102.39133,1049.5221 -103.91917,1049.0803 -105.6495,1048.0372 L -105.6495,1046.1473 L -103.79952,1044.0979 C -103.5234,1043.7114 -103.40375,1043.2176 -103.4375,1042.6101 L -103.39762,1007.6108 C -103.55715,1006.7241 -104.04189,1006.0032 -105.2476,1005.5614 L -105.20771,1003.9138 C -101.06597,1002.788 -88.935267,998.40695 -85.496087,996.10279 L -85.103397,995.59351 L -83.897687,995.63351 L -83.698267,995.75623 C -81.185613,998.80578 -77.651328,998.74442 -74.8104,1001.6619 C -73.966712,1002.5455 -74.169198,1003.5518 -74.8104,1004.5949 L -76.098942,1007.9299 L -76.138825,1040.8029 L -74.408498,1043.6164 z M 167.28203,1048.0249 C 169.15348,1046.7518 170.56167,1045.7455 172.20916,1045.4233 L 172.20916,1006.3652 C 170.53099,1005.4355 168.79146,1004.5183 167.22373,1003.3493 C 165.69896,1003.6716 164.211,1004.1931 163.12494,1005.3189 L 163.08506,1044.7822 C 164.68347,1045.5215 166.16529,1046.6382 167.28203,1048.0249 M 182.58499,1044.1777 C 176.02263,1046.7702 169.50016,1050.1695 163.0145,1054.4463 L 162.72304,1054.8665 L 161.11237,1054.8665 L 156.36931,1051.6544 C 154.55921,1050.0866 153.03137,1049.6448 151.30411,1048.5987 L 151.30411,1046.7118 L 153.15409,1044.6624 C 153.15409,1044.6624 153.53758,1044.3004 153.51611,1043.1746 C 153.56213,1041.349 153.55599,1008.1721 153.55599,1008.1721 C 153.39339,1007.2886 152.91172,1006.5645 151.70601,1006.1227 L 151.7459,1004.4754 C 155.88764,1003.3095 168.01527,998.96531 171.45445,996.67048 L 171.84714,996.15801 L 173.0958,996.19802 C 175.78333,999.37323 179.2808,999.28733 182.14014,1002.1835 C 182.98689,1003.11 182.78441,1004.1134 182.18002,1005.1196 L 180.85466,1008.4544 L 180.81478,1041.3645 L 182.58499,1044.1777 z M 113.10499,999.26278 L 108.00297,1002.5455 L 108.08274,1045.7853 C 109.24856,1046.4696 110.45427,1047.3132 111.6201,1048.2765 L 112.022,1048.3992 C 113.22771,1048.519 115.35994,1047.5556 117.20992,1045.3835 L 117.13015,1003.3095 L 113.10499,999.26278 z M 296.27117,1045.224 L 296.31106,1046.5494 C 293.89657,1049.0005 292.2092,1053.0196 290.35922,1055.6305 C 290.35922,1055.6305 289.37134,1053.5718 288.89274,1052.581 C 287.12559,1049.8014 285.81558,1048.1967 284.49022,1046.6291 L 286.09783,1043.9784 L 286.09783,1008.6937 L 285.05166,1007.2088 L 285.05166,1004.9569 C 292.28896,1002.1835 297.71925,999.13098 301.6585,995.55375 L 303.306,995.43397 C 305.71741,1004.2329 308.53379,1007.3683 310.42365,1009.8995 L 310.42365,1011.4274 C 304.35217,1014.4401 300.97435,1015.7286 300.17054,1020.671 C 299.08449,1025.3314 301.8978,1028.025 303.74778,1027.7028 C 303.26611,1026.0952 302.41015,1025.3834 302.34266,1023.966 C 301.94075,1015.8514 311.26734,1018.7107 310.62,1023.7606 C 309.59837,1029.519 305.51799,1030.8782 304.79395,1030.3964 C 304.79395,1030.3964 302.5973,1030.8107 301.15843,1030.0683 C 298.94643,1028.7429 297.6763,1027.3408 297.35723,1025.0921 C 296.10243,1019.4009 298.80224,1015.4861 300.49268,1013.6363 C 299.48639,1009.6602 298.03831,1006.4848 296.27117,1003.512 C 295.46737,1003.874 295.10535,1003.8311 294.94275,1004.5949 L 295.14523,1042.6101 C 295.86927,1043.3739 296.06869,1044.2575 296.27117,1045.224 M 333.88124,1045.8253 L 333.88124,1047.7549 C 331.70913,1048.9608 330.01562,1052.2955 327.96316,1054.8665 L 326.2359,1053.0196 L 326.2359,1051.9735 C 325.834,1049.7646 324.34604,1047.9545 322.61571,1046.9511 L 322.61571,1045.7455 L 323.66188,1044.822 L 323.54223,1006.6045 L 321.85179,1005.2392 L 326.79734,999.25051 L 326.83722,997.96516 L 328.64731,997.20112 C 329.73337,999.13098 331.05873,1000.7386 332.67554,1001.9842 C 334.32303,1002.9475 337.05351,1002.5855 338.25922,1001.9442 C 339.54469,1000.8581 341.15537,999.29052 342.60038,997.12135 L 343.6895,997.12135 L 349.11671,1002.9475 L 349.11671,1005.2392 C 347.46615,1007.1261 345.05781,1009.0557 343.8521,1010.8658 C 341.79657,1013.9983 340.69824,1015.8911 339.58764,1020.0668 C 338.83906,1023.0456 339.92819,1030.378 343.74779,1030.7678 C 346.59485,1030.8198 346.98755,1029.8319 346.98755,1029.8319 C 342.28131,1028.4268 343.32748,1022.88 345.73889,1021.7939 C 349.00627,1020.576 351.7889,1023.6224 351.9331,1025.6934 C 352.23069,1027.5342 351.62937,1029.3411 350.49423,1030.556 C 348.95718,1031.9856 347.83738,1033.5719 343.48702,1033.2067 C 340.66143,1032.9735 337.57506,1030.0253 337.07499,1025.1318 C 336.32027,1017.9405 339.26858,1012.3907 340.79335,1009.9393 C 339.34834,1006.8868 337.33576,1005.4387 334.43961,1005.681 C 333.63274,1006.043 333.15414,1006.5645 332.99461,1007.3683 L 333.07437,1044.7422 L 333.88124,1045.8253"
       id="path6795"
       style="fill:#000000;fill-opacity:1;fill-rule:evenodd;stroke:none" />
  </g>
</svg>
